<svg xmlns="http://www.w3.org/2000/svg" viewBox="0 0 120 120" width="120" height="120">
  <defs>
    <linearGradient id="g-tur" x1="0" y1="0" x2="1" y2="1">
      <stop offset="0%" stop-color="#1a3040"/>
      <stop offset="100%" stop-color="#0d2030"/>
    </linearGradient>
  </defs>
  <rect x="4" y="4" width="112" height="112" rx="8" fill="url(#g-tur)" stroke="#8b5cf6" stroke-width="1.5"/>
  <!-- Turbine -->
  <circle cx="60" cy="56" r="18" fill="none" stroke="#a78bfa" stroke-width="1.2"/>
  <circle cx="60" cy="56" r="7" fill="none" stroke="#a78bfa" stroke-width="1.5"/>
  <ellipse cx="60" cy="40" rx="4" ry="16" fill="none" stroke="#a78bfa" stroke-width="1.2" transform="rotate(0 60 56)"/>
  <ellipse cx="60" cy="40" rx="4" ry="16" fill="none" stroke="#a78bfa" stroke-width="1.2" transform="rotate(72 60 56)"/>
  <ellipse cx="60" cy="40" rx="4" ry="16" fill="none" stroke="#a78bfa" stroke-width="1.2" transform="rotate(144 60 56)"/>
  <ellipse cx="60" cy="40" rx="4" ry="16" fill="none" stroke="#a78bfa" stroke-width="1.2" transform="rotate(216 60 56)"/>
  <ellipse cx="60" cy="40" rx="4" ry="16" fill="none" stroke="#a78bfa" stroke-width="1.2" transform="rotate(288 60 56)"/>
  <line x1="60" y1="56" x2="78" y2="56" stroke="#a78bfa" stroke-width="1" opacity="0.5"/>
  <line x1="60" y1="56" x2="60" y2="74" stroke="#a78bfa" stroke-width="1" opacity="0.5"/>
</svg>
