<svg xmlns="http://www.w3.org/2000/svg" viewBox="0 0 120 120" width="120" height="120">
  <defs><linearGradient id="g"><stop offset="0%" stop-color="#1a2a45"/><stop offset="100%" stop-color="#0d1730"/></linearGradient></defs>
  <rect x="4" y="4" width="112" height="112" rx="8" fill="url(#g)" stroke="#f97316" stroke-width="1.5"/>
  <rect x="35" y="30" width="50" height="35" rx="4" fill="none" stroke="#f97316" stroke-width="2"/>
  <path d="M35 30 L60 20 L85 30" fill="none" stroke="#fb923c" stroke-width="1.5"/>
  <rect x="40" y="38" width="14" height="10" rx="2" fill="#fb923c" opacity="0.3"/>
  <rect x="58" y="38" width="14" height="10" rx="2" fill="#fb923c" opacity="0.3"/>
  <rect x="40" y="52" width="14" height="10" rx="2" fill="#fb923c" opacity="0.3"/>
  <rect x="58" y="52" width="14" height="10" rx="2" fill="#fb923c" opacity="0.3"/>
  <path d="M52 65 L52 80" stroke="#f97316" stroke-width="2"/>
  <path d="M68 65 L68 80" stroke="#f97316" stroke-width="2"/>
  <path d="M45 80 L75 80" stroke="#fb923c" stroke-width="2"/>
  <circle cx="45" cy="83" r="3" fill="#fb923c" opacity="0.5"/>
  <circle cx="75" cy="83" r="3" fill="#fb923c" opacity="0.5"/>
  <path d="M30 90 L90 90" stroke="#f97316" stroke-width="1" opacity="0.4"/>
</svg>
