<svg xmlns="http://www.w3.org/2000/svg" viewBox="0 0 100 100">
  <rect x="0" y="0" width="100" height="100" rx="12" fill="#2a2f3d"/>
  <rect x="20" y="28" width="60" height="44" rx="4" fill="#3d4354"/>
  <rect x="28" y="36" width="44" height="28" rx="2" fill="#1e222e"/>
  <circle cx="32" cy="28" r="2.5" fill="#7c8db8"/><circle cx="44" cy="28" r="2.5" fill="#7c8db8"/><circle cx="56" cy="28" r="2.5" fill="#7c8db8"/><circle cx="68" cy="28" r="2.5" fill="#7c8db8"/>
  <circle cx="32" cy="72" r="2.5" fill="#7c8db8"/><circle cx="44" cy="72" r="2.5" fill="#7c8db8"/><circle cx="56" cy="72" r="2.5" fill="#7c8db8"/><circle cx="68" cy="72" r="2.5" fill="#7c8db8"/>
  <line x1="40" y1="44" x2="60" y2="44" stroke="#4a5a7a" stroke-width="1.5"/>
  <line x1="40" y1="52" x2="60" y2="52" stroke="#4a5a7a" stroke-width="1.5"/>
  <rect x="30" y="40" width="4" height="8" rx="1" fill="#c8a45c"/>
  <rect x="50" y="40" width="4" height="8" rx="1" fill="#c8a45c"/>
  <rect x="38" y="48" width="4" height="8" rx="1" fill="#c8a45c"/>
  <rect x="58" y="48" width="4" height="8" rx="1" fill="#c8a45c"/>
</svg>
