<svg xmlns="http://www.w3.org/2000/svg" viewBox="0 0 630 300" fill="none">
  <rect width="630" height="300" rx="8" fill="url(#bgS)"/>
  <defs>
    <linearGradient id="bgS" x1="0" y1="0" x2="1" y2="1">
      <stop offset="0%" stop-color="#140a1c"/>
      <stop offset="50%" stop-color="#1c0a26"/>
      <stop offset="100%" stop-color="#240a30"/>
    </linearGradient>
    <linearGradient id="flask" x1="0" y1="0" x2="1" y2="1">
      <stop offset="0%" stop-color="#a855f7"/>
      <stop offset="100%" stop-color="#7c3aed"/>
    </linearGradient>
  </defs>
  <!-- Grid lines -->
  <path d="M0 150h630M315 0v300" stroke="rgba(168,85,247,0.06)" stroke-width="1"/>
  <!-- Large flask outline -->
  <path d="M285 40v100c0 10-20 20-30 40s-15 40-15 50c0 20 15 40 75 40s75-20 75-40c0-10-5-30-15-50s-30-30-30-40V40h-60z" stroke="rgba(168,85,247,0.3)" stroke-width="2" fill="none"/>
  <!-- Flask liquid -->
  <path d="M295 140c0 10-15 18-22 32s-13 32-13 40c0 12 12 24 55 24s55-12 55-24c0-8-6-26-13-40s-22-22-22-32v-4h-40v4z" fill="rgba(168,85,247,0.15)"/>
  <!-- Molecules -->
  <circle cx="330" cy="80" r="4" fill="rgba(168,85,247,0.3)"/>
  <circle cx="330" cy="80" r="1.5" fill="#e879f9"/>
  <circle cx="170" cy="100" r="3" fill="rgba(168,85,247,0.25)"/>
  <circle cx="460" cy="80" r="3" fill="rgba(168,85,247,0.25)"/>
  <circle cx="500" cy="220" r="4" fill="rgba(168,85,247,0.2)"/>
  <circle cx="130" cy="230" r="2.5" fill="rgba(168,85,247,0.2)"/>
  <!-- Small flask -->
  <path d="M460 180v40c0 5-8 8-12 16s-6 16-6 20c0 8 6 16 30 16s30-8 30-16c0-4-2-12-6-20s-12-11-12-16v-40h-24z" stroke="rgba(168,85,247,0.15)" stroke-width="1.5" fill="none"/>
  <!-- Title -->
  <text x="315" y="178" text-anchor="middle" font-family="Orbitron,sans-serif" font-size="24" font-weight="700" fill="#a855f7" letter-spacing="2">SCIENCE &amp; PRODUCTION</text>
  <text x="315" y="212" text-anchor="middle" font-family="Rajdhani,sans-serif" font-size="14" fill="rgba(168,85,247,0.5)" letter-spacing="4">RESEARCH &amp; AUTOMATION</text>
</svg>