<svg xmlns="http://www.w3.org/2000/svg" viewBox="0 0 680 200" width="680" height="200">
  <defs>
    <filter id="dsBt"><feDropShadow dx="1" dy="1" stdDeviation="2" flood-color="#000" flood-opacity="0.4"/></filter>
  </defs>

  <rect width="680" height="200" fill="#0d1117" rx="8"/>
  <rect x="4" y="4" width="672" height="192" fill="none" stroke="#1c2333" stroke-width="0.5" rx="6"/>

  <text x="340" y="24" text-anchor="middle" fill="#8B949E" font-size="10" font-weight="bold" font-family="Inter,Segoe UI,monospace" letter-spacing="1">BELT TIER COMPARISON</text>

  <!-- Headers -->
  <text x="80" y="46" text-anchor="middle" fill="#8B949E" font-size="9" font-weight="bold" font-family="Inter,Segoe UI,monospace">TIER</text>
  <text x="220" y="46" text-anchor="middle" fill="#8B949E" font-size="9" font-weight="bold" font-family="Inter,Segoe UI,monospace">THROUGHPUT</text>
  <text x="360" y="46" text-anchor="middle" fill="#8B949E" font-size="9" font-weight="bold" font-family="Inter,Segoe UI,monospace">SMELTERS</text>
  <text x="480" y="46" text-anchor="middle" fill="#8B949E" font-size="9" font-weight="bold" font-family="Inter,Segoe UI,monospace">VISUAL</text>
  <text x="620" y="46" text-anchor="middle" fill="#8B949E" font-size="9" font-weight="bold" font-family="Inter,Segoe UI,monospace">USE CASE</text>

  <line x1="20" y1="52" x2="660" y2="52" stroke="#30363d" stroke-width="0.8"/>

  <!-- Row: Mk.I -->
  <rect x="30" y="60" width="100" height="32" rx="5" fill="#5D4037" stroke="#FFB300" stroke-width="1.2" filter="url(#dsBt)"/>
  <text x="80" y="80" text-anchor="middle" fill="#FFB74D" font-size="12" font-weight="bold" font-family="Inter,Segoe UI,monospace">Mk.I</text>

  <rect x="150" y="65" width="130" height="22" rx="4" fill="#1a1a2e" stroke="#66BB6A" stroke-width="0.8"/>
  <rect x="155" y="69" width="120" height="14" rx="2" fill="#FFB300"/>
  <text x="215" y="80" text-anchor="middle" fill="#FFB300" font-size="9" font-weight="bold" font-family="Inter,Segoe UI,monospace">1 ore/s</text>

  <rect x="300" y="65" width="100" height="22" rx="4" fill="#1a1a2e" stroke="#42A5F5" stroke-width="0.8"/>
  <text x="350" y="80" text-anchor="middle" fill="#B3E5FC" font-size="11" font-family="Inter,Segoe UI,monospace">x1</text>

  <!-- Belt lane -->
  <rect x="440" y="65" width="90" height="14" rx="3" fill="#F57F17"/>
  <text x="485" y="76" text-anchor="middle" fill="#FFF8E1" font-size="7" font-weight="bold" font-family="Inter,Segoe UI,monospace">YELLOW</text>

  <rect x="545" y="62" width="130" height="28" rx="4" fill="#263238" stroke="#546E7A" stroke-width="0.8"/>
  <text x="610" y="77" text-anchor="middle" fill="#78909C" font-size="8" font-family="Inter,Segoe UI,monospace">Early game</text>

  <!-- Row: Mk.II -->
  <rect x="30" y="98" width="100" height="32" rx="5" fill="#B71C1C" stroke="#EF5350" stroke-width="1.2" filter="url(#dsBt)"/>
  <text x="80" y="118" text-anchor="middle" fill="#EF9A9A" font-size="12" font-weight="bold" font-family="Inter,Segoe UI,monospace">Mk.II</text>

  <rect x="150" y="103" width="130" height="22" rx="4" fill="#1a1a2e" stroke="#66BB6A" stroke-width="0.8"/>
  <rect x="155" y="107" width="120" height="14" rx="2" fill="#EF5350"/>
  <text x="215" y="118" text-anchor="middle" fill="#EF5350" font-size="9" font-weight="bold" font-family="Inter,Segoe UI,monospace">2 ore/s</text>

  <rect x="300" y="103" width="100" height="22" rx="4" fill="#1a1a2e" stroke="#42A5F5" stroke-width="0.8"/>
  <text x="350" y="118" text-anchor="middle" fill="#B3E5FC" font-size="11" font-family="Inter,Segoe UI,monospace">x2</text>

  <rect x="440" y="103" width="90" height="14" rx="3" fill="#D32F2F"/>
  <text x="485" y="114" text-anchor="middle" fill="#FFCDD2" font-size="7" font-weight="bold" font-family="Inter,Segoe UI,monospace">RED</text>

  <rect x="545" y="100" width="130" height="28" rx="4" fill="#263238" stroke="#546E7A" stroke-width="0.8"/>
  <text x="610" y="115" text-anchor="middle" fill="#78909C" font-size="8" font-family="Inter,Segoe UI,monospace">Mid game</text>

  <!-- Row: Mk.III -->
  <rect x="30" y="136" width="100" height="32" rx="5" fill="#0D47A1" stroke="#42A5F5" stroke-width="1.5" filter="url(#dsBt)"/>
  <text x="80" y="156" text-anchor="middle" fill="#90CAF9" font-size="12" font-weight="bold" font-family="Inter,Segoe UI,monospace">Mk.III</text>

  <rect x="150" y="141" width="130" height="22" rx="4" fill="#1a1a2e" stroke="#66BB6A" stroke-width="0.8"/>
  <rect x="155" y="145" width="120" height="14" rx="2" fill="#42A5F5"/>
  <text x="215" y="156" text-anchor="middle" fill="#42A5F5" font-size="9" font-weight="bold" font-family="Inter,Segoe UI,monospace">3 ore/s</text>

  <rect x="300" y="141" width="100" height="22" rx="4" fill="#0D47A1" stroke="#42A5F5" stroke-width="0.8"/>
  <text x="350" y="156" text-anchor="middle" fill="#B3E5FC" font-size="11" font-weight="bold" font-family="Inter,Segoe UI,monospace">x3</text>

  <rect x="440" y="141" width="90" height="14" rx="3" fill="#1565C0"/>
  <text x="485" y="152" text-anchor="middle" fill="#E1F5FE" font-size="7" font-weight="bold" font-family="Inter,Segoe UI,monospace">BLUE OK</text>

  <rect x="545" y="138" width="130" height="28" rx="4" fill="#1B5E20" stroke="#66BB6A" stroke-width="1"/>
  <text x="610" y="153" text-anchor="middle" fill="#66BB6A" font-size="8" font-weight="bold" font-family="Inter,Segoe UI,monospace">Recommended</text>
</svg>