<?xml version="1.0" encoding="UTF-8"?>
<svg xmlns="http://www.w3.org/2000/svg" viewBox="0 0 800 580" width="800" height="580">
<defs>
    <linearGradient id="bg" x1="0" y1="0" x2="0" y2="1">
      <stop offset="0%" stop-color="#1a1a2e"/>
      <stop offset="100%" stop-color="#16213e"/>
    </linearGradient>
    <linearGradient id="box1" x1="0" y1="0" x2="1" y2="1">
      <stop offset="0%" stop-color="#0f3460"/>
      <stop offset="100%" stop-color="#1a1a4e"/>
    </linearGradient>
    <linearGradient id="accent1" x1="0" y1="0" x2="1" y2="0">
      <stop offset="0%" stop-color="#00d4ff"/>
      <stop offset="100%" stop-color="#0088cc"/>
    </linearGradient>
    <linearGradient id="accent2" x1="0" y1="0" x2="1" y2="0">
      <stop offset="0%" stop-color="#ff6b35"/>
      <stop offset="100%" stop-color="#cc4400"/>
    </linearGradient>
    <linearGradient id="accent3" x1="0" y1="0" x2="1" y2="0">
      <stop offset="0%" stop-color="#2ecc71"/>
      <stop offset="100%" stop-color="#1a9c4e"/>
    </linearGradient>
    <filter id="glow">
      <feGaussianBlur stdDeviation="2" result="blur"/>
      <feMerge><feMergeNode in="blur"/><feMergeNode in="SourceGraphic"/></feMerge>
    </filter>
    <marker id="arrow" markerWidth="10" markerHeight="7" refX="10" refY="3.5" orient="auto">
      <polygon points="0 0, 10 3.5, 0 7" fill="#8892b0"/>
    </marker>
    <marker id="arrow1" markerWidth="10" markerHeight="7" refX="10" refY="3.5" orient="auto">
      <polygon points="0 0, 10 3.5, 0 7" fill="#00d4ff"/>
    </marker>
    <marker id="arrow2" markerWidth="10" markerHeight="7" refX="10" refY="3.5" orient="auto">
      <polygon points="0 0, 10 3.5, 0 7" fill="#ff6b35"/>
    </marker>
    <marker id="arrow3" markerWidth="10" markerHeight="7" refX="10" refY="3.5" orient="auto">
      <polygon points="0 0, 10 3.5, 0 7" fill="#2ecc71"/>
    </marker>
  </defs>
  <rect width="800" height="580" fill="url(#bg)" rx="8"/>
  <text x="400" y="36" text-anchor="middle" fill="#00d4ff" font-family="Consolas, monospace" font-size="18" font-weight="bold" filter="url(#glow)">Rare Resources Location - Quick Reference</text>
  <line x1="160" y1="46" x2="640" y2="46" stroke="#00d4ff" stroke-width="1" opacity="0.4"/>

  <!-- Star Cluster visual -->
  <circle cx="80" cy="115" r="15" fill="#ff6b35" opacity="0.8"/>
  <text x="80" y="145" text-anchor="middle" fill="#ff6b35" font-family="Consolas, monospace" font-size="8">M Type</text>
  <circle cx="160" cy="100" r="12" fill="#ff6b35" opacity="0.6"/>
  <text x="160" y="130" text-anchor="middle" fill="#ff6b35" font-family="Consolas, monospace" font-size="8">K Type</text>
  <circle cx="240" cy="120" r="18" fill="#ff6b35" opacity="0.9"/>
  <text x="240" y="150" text-anchor="middle" fill="#ff6b35" font-family="Consolas, monospace" font-size="8">G Type</text>
  <circle cx="320" cy="90" r="10" fill="#00d4ff" opacity="0.7"/>
  <text x="320" y="118" text-anchor="middle" fill="#00d4ff" font-family="Consolas, monospace" font-size="8">F Type</text>
  <circle cx="400" cy="110" r="14" fill="#00d4ff" opacity="0.8"/>
  <text x="400" y="140" text-anchor="middle" fill="#00d4ff" font-family="Consolas, monospace" font-size="8">A Type</text>
  <circle cx="480" cy="95" r="11" fill="#00d4ff" opacity="0.6"/>
  <text x="480" y="125" text-anchor="middle" fill="#00d4ff" font-family="Consolas, monospace" font-size="8">B Type</text>
  <circle cx="560" cy="115" r="16" fill="#00d4ff" opacity="0.9"/>
  <text x="560" y="145" text-anchor="middle" fill="#00d4ff" font-family="Consolas, monospace" font-size="8">O Type</text>
  <circle cx="640" cy="105" r="13" fill="#2ecc71" opacity="0.7"/>
  <text x="640" y="135" text-anchor="middle" fill="#2ecc71" font-family="Consolas, monospace" font-size="8">Black</text>

  <!-- Table -->
  <rect x="20" y="165" width="760" height="28" rx="6" fill="#0f3460"/>
  <text x="400" y="184" text-anchor="middle" fill="#00d4ff" font-family="Consolas, monospace" font-size="13" font-weight="bold">Resource Locations by Star and Planet Type</text>

  <!-- Header -->
  <rect x="25" y="200" width="240" height="26" rx="3" fill="#0f3460"/>
  <text x="145" y="218" text-anchor="middle" fill="#00d4ff" font-family="Consolas, monospace" font-size="12" font-weight="bold">Rare Resource</text>
  <rect x="270" y="200" width="240" height="26" rx="3" fill="#0f3460"/>
  <text x="390" y="218" text-anchor="middle" fill="#00d4ff" font-family="Consolas, monospace" font-size="12" font-weight="bold">Planet Type</text>
  <rect x="515" y="200" width="260" height="26" rx="3" fill="#0f3460"/>
  <text x="645" y="218" text-anchor="middle" fill="#00d4ff" font-family="Consolas, monospace" font-size="12" font-weight="bold">Star System Hint</text>

  <!-- Row 1 -->
  <rect x="25" y="232" width="240" height="30" rx="3" fill="#1a1a2e" stroke="#00d4ff" stroke-width="0.8"/>
  <text x="145" y="252" text-anchor="middle" fill="#00d4ff" font-family="Consolas, monospace" font-size="11">Fire Ice</text>
  <rect x="270" y="232" width="240" height="30" rx="3" fill="#1a1a2e"/>
  <text x="390" y="252" text-anchor="middle" fill="#8892b0" font-family="Consolas, monospace" font-size="11">Ice Giant + Gas Giant</text>
  <rect x="515" y="232" width="260" height="30" rx="3" fill="#1a1a2e"/>
  <text x="645" y="252" text-anchor="middle" fill="#8892b0" font-family="Consolas, monospace" font-size="11">Any (collectors)</text>

  <!-- Row 2 -->
  <rect x="25" y="268" width="240" height="30" rx="3" fill="#1a1a2e" stroke="#2ecc71" stroke-width="0.8"/>
  <text x="145" y="288" text-anchor="middle" fill="#2ecc71" font-family="Consolas, monospace" font-size="11">Organic Crystal</text>
  <rect x="270" y="268" width="240" height="30" rx="3" fill="#1a1a2e"/>
  <text x="390" y="288" text-anchor="middle" fill="#8892b0" font-family="Consolas, monospace" font-size="11">Jungle + Oceania</text>
  <rect x="515" y="268" width="260" height="30" rx="3" fill="#1a1a2e"/>
  <text x="645" y="288" text-anchor="middle" fill="#8892b0" font-family="Consolas, monospace" font-size="11">G/K/M types</text>

  <!-- Row 3 -->
  <rect x="25" y="304" width="240" height="30" rx="3" fill="#1a1a2e" stroke="#ff6b35" stroke-width="0.8"/>
  <text x="145" y="324" text-anchor="middle" fill="#ff6b35" font-family="Consolas, monospace" font-size="11">Spiniform Stalagmite</text>
  <rect x="270" y="304" width="240" height="30" rx="3" fill="#1a1a2e"/>
  <text x="390" y="324" text-anchor="middle" fill="#8892b0" font-family="Consolas, monospace" font-size="11">Red Stone + Volcanic</text>
  <rect x="515" y="304" width="260" height="30" rx="3" fill="#1a1a2e"/>
  <text x="645" y="324" text-anchor="middle" fill="#8892b0" font-family="Consolas, monospace" font-size="11">M/K types</text>

  <!-- Row 4 -->
  <rect x="25" y="340" width="240" height="30" rx="3" fill="#1a1a2e" stroke="#2ecc71" stroke-width="0.8"/>
  <text x="145" y="360" text-anchor="middle" fill="#2ecc71" font-family="Consolas, monospace" font-size="11">Fractal Silicon</text>
  <rect x="270" y="340" width="240" height="30" rx="3" fill="#1a1a2e"/>
  <text x="390" y="360" text-anchor="middle" fill="#8892b0" font-family="Consolas, monospace" font-size="11">Ash + Desert</text>
  <rect x="515" y="340" width="260" height="30" rx="3" fill="#1a1a2e"/>
  <text x="645" y="360" text-anchor="middle" fill="#8892b0" font-family="Consolas, monospace" font-size="11">G/F types</text>

  <!-- Row 5 -->
  <rect x="25" y="376" width="240" height="30" rx="3" fill="#1a1a2e" stroke="#00d4ff" stroke-width="0.8"/>
  <text x="145" y="396" text-anchor="middle" fill="#00d4ff" font-family="Consolas, monospace" font-size="11">Grating Crystal</text>
  <rect x="270" y="376" width="240" height="30" rx="3" fill="#1a1a2e"/>
  <text x="390" y="396" text-anchor="middle" fill="#8892b0" font-family="Consolas, monospace" font-size="11">Prairie + Ice</text>
  <rect x="515" y="376" width="260" height="30" rx="3" fill="#1a1a2e"/>
  <text x="645" y="396" text-anchor="middle" fill="#8892b0" font-family="Consolas, monospace" font-size="11">G/K types</text>

  <!-- Row 6 -->
  <rect x="25" y="412" width="240" height="30" rx="3" fill="#1a1a2e" stroke="#ff6b35" stroke-width="0.8"/>
  <text x="145" y="432" text-anchor="middle" fill="#ff6b35" font-family="Consolas, monospace" font-size="11">Sulfuric Acid (Ocean)</text>
  <rect x="270" y="412" width="240" height="30" rx="3" fill="#1a1a2e"/>
  <text x="390" y="432" text-anchor="middle" fill="#8892b0" font-family="Consolas, monospace" font-size="11">Sulfuric Ocean</text>
  <rect x="515" y="412" width="260" height="30" rx="3" fill="#1a1a2e"/>
  <text x="645" y="432" text-anchor="middle" fill="#8892b0" font-family="Consolas, monospace" font-size="11">Any with H2Ocean</text>

  <!-- Search strategy -->
  <rect x="25" y="460" width="750" height="100" rx="6" fill="rgba(0,212,255,0.05)" stroke="#00d4ff" stroke-width="1" stroke-dasharray="4,3"/>
  <text x="45" y="485" fill="#00d4ff" font-family="Consolas, monospace" font-size="12" font-weight="bold">Search Strategy:</text>
  <text x="45" y="508" fill="#8892b0" font-family="Consolas, monospace" font-size="11">1. Start by scanning G/K/M type stars (most resource variety)</text>
  <text x="45" y="528" fill="#8892b0" font-family="Consolas, monospace" font-size="11">2. Use the Star Details view to check planet type (not resource view)</text>
  <text x="45" y="548" fill="#8892b0" font-family="Consolas, monospace" font-size="11">3. Organic Crystal on Jungle planets is the highest priority find</text>
</svg>