<svg xmlns="http://www.w3.org/2000/svg" viewBox="0 0 64 64" width="64" height="64">
  <defs>
    <linearGradient id="chipGrad" x1="0%" y1="0%" x2="100%" y2="100%">
      <stop offset="0%" stop-color="#AB47BC"/>
      <stop offset="100%" stop-color="#6A1B9A"/>
    </linearGradient>
  </defs>
  <rect x="12" y="12" width="40" height="40" rx="4" fill="url(#chipGrad)" stroke="#CE93D8" stroke-width="1.5"/>
  <rect x="18" y="18" width="28" height="28" rx="2" fill="#4A148C" stroke="#E1BEE7" stroke-width="1"/>
  <circle cx="32" cy="32" r="10" fill="none" stroke="#CE93D8" stroke-width="1.5"/>
  <circle cx="32" cy="32" r="4" fill="#E1BEE7"/>
  <!-- Pins -->
  <rect x="20" y="4" width="4" height="8" fill="#B0BEC5"/>
  <rect x="30" y="4" width="4" height="8" fill="#B0BEC5"/>
  <rect x="40" y="4" width="4" height="8" fill="#B0BEC5"/>
  <rect x="20" y="52" width="4" height="8" fill="#B0BEC5"/>
  <rect x="30" y="52" width="4" height="8" fill="#B0BEC5"/>
  <rect x="40" y="52" width="4" height="8" fill="#B0BEC5"/>
  <rect x="4" y="20" width="8" height="4" fill="#B0BEC5"/>
  <rect x="4" y="30" width="8" height="4" fill="#B0BEC5"/>
  <rect x="4" y="40" width="8" height="4" fill="#B0BEC5"/>
  <rect x="52" y="20" width="8" height="4" fill="#B0BEC5"/>
  <rect x="52" y="30" width="8" height="4" fill="#B0BEC5"/>
  <rect x="52" y="40" width="8" height="4" fill="#B0BEC5"/>
</svg>
